<svg width="2708" height="777" xmlns="http://www.w3.org/2000/svg" xmlns:xlink="http://www.w3.org/1999/xlink" xml:space="preserve" overflow="hidden"><g transform="translate(-2364 -2060)"><text font-family="Source Sans Pro,Source Sans Pro_MSFontService,sans-serif" font-weight="400" font-size="64" transform="matrix(1 0 0 1 3280.51 2704)">Previous work</text><text font-family="Source Sans Pro,Source Sans Pro_MSFontService,sans-serif" font-weight="400" font-size="64" transform="matrix(1 0 0 1 3660.92 2704)">’s </text><text font-family="Source Sans Pro,Source Sans Pro_MSFontService,sans-serif" font-weight="400" font-size="64" transform="matrix(1 0 0 1 3716.5 2704)">Finetuning</text><text font-family="Source Sans Pro,Source Sans Pro_MSFontService,sans-serif" font-weight="400" font-size="64" transform="matrix(1 0 0 1 4005.82 2704)">:</text><text fill="#7A1410" font-family="Source Sans Pro SemiBold,Source Sans Pro SemiBold_MSFontService,sans-serif" font-weight="600" font-size="64" transform="matrix(1 0 0 1 3271.61 2781)">Domain Adaptation on GLIP</text><rect x="3505.5" y="2112.5" width="425" height="266" stroke="#ED7D31" stroke-width="4.58333" stroke-miterlimit="8" fill="#ED7D31"/><text fill="#FFFFFF" font-family="Source Sans Pro,Source Sans Pro_MSFontService,sans-serif" font-weight="400" font-size="64" transform="matrix(1 0 0 1 3655.72 2267)">GLIP</text><path d="M3930 2238.84 3992.93 2238.84 3992.93 2249.16 3930 2249.16ZM3987.77 2228.53 4018.71 2244 3987.77 2259.47Z" fill="#ED7D31"/><path d="M4241.81 2386.5 4241.81 2407.06 4241.81 2416.83 4241.81 2426.2 4241.81 2435.12 4241.81 2443.53 4241.81 2451.38 4241.81 2458.62 4241.81 2465.21 4241.81 2471.08 4241.81 2476.19 4241.81 2480.48 4241.81 2483.91 4241.81 2486.43 4241.81 2487.97 4241.81 2498.81 3717.19 2498.81 3717.19 2487.98 3717.19 2486.43 3717.19 2483.91 3717.19 2480.48 3717.19 2476.19 3717.19 2471.08 3717.19 2465.21 3717.19 2458.62 3717.19 2451.38 3717.19 2438.06 3737.81 2438.06 3737.81 2451.38 3737.81 2458.62 3737.81 2465.21 3737.81 2471.08 3737.81 2476.19 3737.81 2480.48 3737.81 2483.91 3737.81 2486.43 3737.81 2487.97 3737.81 2488.5 3727.5 2478.19 4231.5 2478.19 4221.19 2488.5 4221.19 2487.97 4221.19 2486.43 4221.19 2483.91 4221.19 2480.48 4221.19 2476.19 4221.19 2471.08 4221.19 2465.21 4221.19 2458.62 4221.19 2451.38 4221.19 2443.53 4221.19 2435.12 4221.19 2426.2 4221.19 2416.83 4221.19 2407.06 4221.19 2386.5ZM3696.56 2448.38 3727.5 2386.5 3758.44 2448.38Z" fill="#002060"/><text font-family="Source Sans Pro,Source Sans Pro_MSFontService,sans-serif" font-weight="400" font-size="83" transform="matrix(1 0 0 1 3051.53 2479)">Domain</text><text font-family="Source Sans Pro,Source Sans Pro_MSFontService,sans-serif" font-weight="400" font-size="64" transform="matrix(1 0 0 1 3548.64 2559)">Finetuning w/ </text><text font-family="Source Sans Pro,Source Sans Pro_MSFontService,sans-serif" font-weight="400" font-size="64" transform="matrix(1 0 0 1 3931.35 2559)">2D </text><text font-family="Source Sans Pro,Source Sans Pro_MSFontService,sans-serif" font-weight="400" font-size="64" transform="matrix(1 0 0 1 4015.57 2559)">Detection Loss</text><path d="M4412 2237.84 4484.81 2237.84 4484.81 2248.16 4412 2248.16ZM4479.65 2227.53 4510.59 2243 4479.65 2258.47Z" fill="#00B050"/><path d="M4511.5 2149.83C4511.5 2124.8 4531.8 2104.5 4556.83 2104.5L5024.17 2104.5C5049.2 2104.5 5069.5 2124.8 5069.5 2149.83L5069.5 2331.17C5069.5 2356.2 5049.2 2376.5 5024.17 2376.5L4556.83 2376.5C4531.8 2376.5 4511.5 2356.2 4511.5 2331.17Z" stroke="#6C4F00" stroke-width="4.58333" stroke-miterlimit="8" fill="#FFC000" fill-rule="evenodd"/><text fill="#FFFFFF" font-family="Source Sans Pro,Source Sans Pro_MSFontService,sans-serif" font-weight="400" font-size="64" transform="matrix(1 0 0 1 4691.65 2223)">3D</text><text fill="#FFFFFF" font-family="Source Sans Pro,Source Sans Pro_MSFontService,sans-serif" font-weight="400" font-size="64" transform="matrix(1 0 0 1 4775.87 2223)">Part</text><text fill="#FFFFFF" font-family="Source Sans Pro,Source Sans Pro_MSFontService,sans-serif" font-weight="400" font-size="64" transform="matrix(1 0 0 1 4599.68 2300)">Segmentation</text><path d="M3405 2239.84 3479.18 2239.84 3479.18 2250.16 3405 2250.16ZM3474.02 2229.53 3504.96 2245 3474.02 2260.47Z" fill="#7A1410"/><text font-family="Source Sans Pro SemiBold,Source Sans Pro SemiBold_MSFontService,sans-serif" font-weight="600" font-size="83" transform="matrix(1 0 0 1 4612.58 2472)">Main </text><text font-family="Source Sans Pro SemiBold,Source Sans Pro SemiBold_MSFontService,sans-serif" font-weight="600" font-size="83" transform="matrix(1 0 0 1 4801.07 2472)">Task</text><path d="M2969.5 2155.67C2969.5 2130.72 2989.72 2110.5 3014.67 2110.5L3360.33 2110.5C3385.28 2110.5 3405.5 2130.72 3405.5 2155.67L3405.5 2336.33C3405.5 2361.28 3385.28 2381.5 3360.33 2381.5L3014.67 2381.5C2989.72 2381.5 2969.5 2361.28 2969.5 2336.33Z" stroke="#172C51" stroke-width="4.58333" stroke-miterlimit="8" fill="#C00000" fill-rule="evenodd"/><text fill="#FFFFFF" font-family="Source Sans Pro,Source Sans Pro_MSFontService,sans-serif" font-weight="400" font-size="64" transform="matrix(1 0 0 1 3151.22 2190)">2D </text><text fill="#FFFFFF" font-family="Source Sans Pro,Source Sans Pro_MSFontService,sans-serif" font-weight="400" font-size="64" transform="matrix(1 0 0 1 3048.67 2267)">Rendering</text><text fill="#FFFFFF" font-family="Source Sans Pro,Source Sans Pro_MSFontService,sans-serif" font-weight="400" font-size="64" transform="matrix(1 0 0 1 3090.49 2344)">Images</text><path d="M3.78793e-05-5.15625 72.4703-5.15572 72.4702 5.15678-3.78793e-05 5.15625ZM67.3141-15.4683 98.2515 0.000721785 67.3139 15.4692Z" fill="#00B0F0" transform="matrix(1 0 0 -1 2871 2245)"/><path d="M2366.5 2155.67C2366.5 2130.72 2386.72 2110.5 2411.67 2110.5L2826.33 2110.5C2851.28 2110.5 2871.5 2130.72 2871.5 2155.67L2871.5 2336.33C2871.5 2361.28 2851.28 2381.5 2826.33 2381.5L2411.67 2381.5C2386.72 2381.5 2366.5 2361.28 2366.5 2336.33Z" stroke="#172C51" stroke-width="4.58333" stroke-miterlimit="8" fill="#00B0F0" fill-rule="evenodd"/><text fill="#FFFFFF" font-family="Source Sans Pro,Source Sans Pro_MSFontService,sans-serif" font-weight="400" font-size="64" transform="matrix(1 0 0 1 2419.03 2267)">3D Point Cloud</text><rect x="2913.5" y="2070.5" width="1532" height="538" stroke="#C00000" stroke-width="20.625" stroke-miterlimit="8" fill="none"/><path d="M4019.5 2152.67C4019.5 2127.72 4039.72 2107.5 4064.67 2107.5L4365.33 2107.5C4390.28 2107.5 4410.5 2127.72 4410.5 2152.67L4410.5 2333.33C4410.5 2358.28 4390.28 2378.5 4365.33 2378.5L4064.67 2378.5C4039.72 2378.5 4019.5 2358.28 4019.5 2333.33Z" stroke="#2B4719" stroke-width="4.58333" stroke-miterlimit="8" fill="#70AD47" fill-rule="evenodd"/><text fill="#FFFFFF" font-family="Source Sans Pro,Source Sans Pro_MSFontService,sans-serif" font-weight="400" font-size="64" transform="matrix(1 0 0 1 4178.58 2187)">2D </text><text fill="#FFFFFF" font-family="Source Sans Pro,Source Sans Pro_MSFontService,sans-serif" font-weight="400" font-size="64" transform="matrix(1 0 0 1 4083.75 2264)">Bounding </text><text fill="#FFFFFF" font-family="Source Sans Pro,Source Sans Pro_MSFontService,sans-serif" font-weight="400" font-size="64" transform="matrix(1 0 0 1 4163.69 2341)">Box</text></g></svg>